<svg id="Layer_1" data-name="Layer 1" xmlns="http://www.w3.org/2000/svg" viewBox="0 0 48 48">
  <path d="M41.95,35.93c-.46,4.52-4.3,8.07-8.95,8.07h-1.1c.06-.32,.1-.66,.1-1s-.04-.68-.1-1h1.1c3.52,0,6.44-2.61,6.92-6h1.08c.32,0,.64-.02,.95-.07Z" id="id_101" style="fill: rgb(255, 255, 255);"></path>
  <rect x="20" y="40" width="10" height="6" rx="3" ry="3" id="id_102" style="fill: rgb(255, 255, 255);"></rect>
  <path d="M42.34,18.13c-.43-.09-.88-.13-1.34-.13h-1.71c-1.19-7.36-7.59-13-15.29-13s-14.1,5.64-15.29,13h-1.71c-.46,0-.91,.04-1.34,.13C6.82,9.04,14.6,2,24,2s17.18,7.04,18.34,16.13Z" id="id_103" style="fill: rgb(255, 255, 255);"></path>
  <path d="M41,34h-2c-1.103,0-2-.897-2-2v-10c0-1.103,.897-2,2-2h2c2.757,0,5,2.243,5,5v4c0,2.757-2.243,5-5,5Z" id="id_104" style="fill: rgb(255, 255, 255);"></path>
  <path d="M2,29v-4c0-2.757,2.243-5,5-5h2c1.103,0,2,.897,2,2v10c0,1.103-.897,2-2,2h-2c-2.757,0-5-2.243-5-5Z" id="id_105" style="fill: rgb(255, 255, 255);"></path>
  <path d="M29,19h-10c-2.209,0-4,1.791-4,4v6c0,2.209,1.791,4,4,4h1v2.793c0,.445,.539,.669,.854,.354l3.146-3.146h5c2.209,0,4-1.791,4-4v-6c0-2.209-1.791-4-4-4Zm-3,10h-6c-.552,0-1-.447-1-1s.448-1,1-1h6c.552,0,1,.447,1,1s-.448,1-1,1Zm2-4h-8c-.552,0-1-.448-1-1s.448-1,1-1h8c.552,0,1,.448,1,1s-.448,1-1,1Z" id="id_106" style="fill: rgb(255, 255, 255);"></path>
</svg>